<svg xmlns="http://www.w3.org/2000/svg" xmlns:xlink="http://www.w3.org/1999/xlink" width="56" height="56" viewBox="0 0 56 56">
  <defs>
    <clipPath id="clip-path">
      <rect id="사각형_2098" data-name="사각형 2098" width="56" height="56" transform="translate(266 380)" fill="#222"/>
    </clipPath>
  </defs>
  <g id="마스크_그룹_44" data-name="마스크 그룹 44" transform="translate(-266 -380)" clip-path="url(#clip-path)">
    <g id="business-and-finance" transform="translate(274 380)">
      <path id="패스_300" data-name="패스 300" d="M3.733,44.8H28v1.867H3.733Zm0,0" fill="#222"/>
      <path id="패스_301" data-name="패스 301" d="M15.867,53.2a2.8,2.8,0,1,1,2.8-2.8A2.8,2.8,0,0,1,15.867,53.2Zm0-3.733a.933.933,0,1,0,.933.933A.933.933,0,0,0,15.867,49.467Zm0,0" fill="#222"/>
      <path id="패스_302" data-name="패스 302" d="M29.867,51.333a2.8,2.8,0,0,1-2.8,2.8H4.667a2.8,2.8,0,0,1-2.8-2.8V4.667a2.8,2.8,0,0,1,2.8-2.8H6.533V2.8a2.8,2.8,0,0,0,2.8,2.8H22.4a2.8,2.8,0,0,0,2.8-2.8V1.867h1.867a2.8,2.8,0,0,1,2.8,2.8V11.2h1.867V4.667A4.672,4.672,0,0,0,27.067,0H4.667A4.672,4.672,0,0,0,0,4.667V51.333A4.672,4.672,0,0,0,4.667,56h22.4a4.672,4.672,0,0,0,4.667-4.667V29.867H29.867ZM8.4,1.867H23.333V2.8a.933.933,0,0,1-.933.933H9.333A.933.933,0,0,1,8.4,2.8Zm0,0" fill="#222"/>
      <path id="패스_303" data-name="패스 303" d="M13.067,13.067V28H56V13.067ZM54.133,26.133h-39.2v-11.2h39.2Zm0,0" transform="translate(-8)" fill="#222"/>
      <path id="패스_304" data-name="패스 304" d="M17.767,23.208,19.6,22.15v2.117h1.867V22.15L23.3,23.208l.933-1.617L22.4,20.533l1.833-1.058L23.3,17.858l-1.833,1.059V16.8H19.6v2.117l-1.833-1.059-.933,1.617,1.833,1.058-1.833,1.058Zm0,0" transform="translate(-8)" fill="#222"/>
      <path id="패스_305" data-name="패스 305" d="M27.1,23.208l1.833-1.059v2.117H30.8V22.15l1.833,1.059.933-1.617-1.833-1.058,1.833-1.058-.933-1.617L30.8,18.917V16.8H28.933v2.117L27.1,17.858l-.933,1.617L28,20.533l-1.833,1.058Zm0,0" transform="translate(-8)" fill="#222"/>
      <path id="패스_306" data-name="패스 306" d="M36.434,23.208l1.833-1.059v2.117h1.867V22.15l1.833,1.059.933-1.617-1.833-1.058L42.9,19.475l-.933-1.617-1.833,1.059V16.8H38.267v2.117l-1.833-1.059L35.5,19.475l1.833,1.058L35.5,21.592Zm0,0" transform="translate(-8)" fill="#222"/>
      <path id="패스_307" data-name="패스 307" d="M45.767,23.208,47.6,22.15v2.117h1.867V22.15L51.3,23.208l.933-1.617L50.4,20.533l1.833-1.058L51.3,17.858l-1.833,1.059V16.8H47.6v2.117l-1.833-1.059-.933,1.617,1.833,1.058-1.833,1.058Zm0,0" transform="translate(-8)" fill="#222"/>
    </g>
  </g>
</svg>
