<svg xmlns="http://www.w3.org/2000/svg" width="26" height="25" viewBox="0 0 26 25">
  <g id="그룹_5132" data-name="그룹 5132" transform="translate(-338 -359)">
    <rect id="사각형_3041" data-name="사각형 3041" width="26" height="25" transform="translate(338 359)" fill="none"/>
    <g id="contract-svgrepo-com" transform="translate(344 364)">
      <path id="패스_138" data-name="패스 138" d="M37.185,50.071h7.279a.45.45,0,1,1,0,.9H37.185a.45.45,0,0,1,0-.9Zm0,1.947h7.279a.45.45,0,1,1,0,.9H37.185a.45.45,0,0,1,0-.9Zm0,1.947h7.279a.45.45,0,1,1,0,.9H37.185a.45.45,0,0,1,0-.9Zm0,1.947h7.279a.45.45,0,1,1,0,.9H37.185a.45.45,0,0,1,0-.9Z" transform="translate(-33.977 -47.243)"/>
      <path id="패스_139" data-name="패스 139" d="M37.185,50.972h7.279a.45.45,0,1,0,0-.9H37.185a.45.45,0,0,0,0,.9Z" transform="translate(-33.977 -47.243)"/>
      <path id="패스_140" data-name="패스 140" d="M37.185,76.906h7.279a.45.45,0,1,0,0-.9H37.185a.45.45,0,0,0,0,.9Z" transform="translate(-33.977 -71.23)"/>
      <path id="패스_141" data-name="패스 141" d="M37.185,102.841h7.279a.45.45,0,1,0,0-.9H37.185a.45.45,0,0,0,0,.9Z" transform="translate(-33.977 -95.218)"/>
      <path id="패스_142" data-name="패스 142" d="M37.185,128.776h7.279a.45.45,0,1,0,0-.9H37.185a.45.45,0,1,0,0,.9Z" transform="translate(-33.977 -119.206)"/>
      <path id="패스_143" data-name="패스 143" d="M17.851,18.855a.451.451,0,0,0-.132-.319l-1.228-1.228a.451.451,0,0,0-.637,0L13.7,19.468V12.852a.45.45,0,0,0-.45-.45H.45a.45.45,0,0,0-.45.45V27.94a.45.45,0,0,0,.45.45H13.245a.45.45,0,0,0,.45-.45V23.2l4.024-4.024a.45.45,0,0,0,.132-.319ZM.9,27.49V13.3H12.795v7.066l-2.649,2.649H3.208a.45.45,0,1,0,0,.9H9.244L9.167,24a.45.45,0,0,0-.119.212l-.312,1.28H6.848a.45.45,0,1,0,0,.9H9.089a.45.45,0,0,0,.107-.013l1.624-.4a.45.45,0,0,0,.212-.119L12.794,24.1V27.49H.9Zm9.583-2.355-.781.191.191-.781,6.28-6.28.591.591Z" transform="translate(0 -12.402)"/>
    </g>
  </g>
</svg>
