<svg xmlns="http://www.w3.org/2000/svg" xmlns:xlink="http://www.w3.org/1999/xlink" width="80" height="80" viewBox="0 0 80 80">
  <defs>
    <clipPath id="clip-path">
      <rect id="사각형_3032" data-name="사각형 3032" width="80" height="80" transform="translate(161 603)" fill="#fff" stroke="#707070" stroke-width="1"/>
    </clipPath>
  </defs>
  <g id="마스크_그룹_72" data-name="마스크 그룹 72" transform="translate(-161 -603)" clip-path="url(#clip-path)">
    <g id="blank" transform="translate(161 603)">
      <g id="그룹_5111" data-name="그룹 5111" transform="translate(10 17.1)">
        <g id="그룹_5110" data-name="그룹 5110">
          <path id="패스_2589" data-name="패스 2589" d="M62.827,11.168h0c-.012-.03-.024-.058-.038-.087a.759.759,0,0,0-.039-.089L56.46.508a1.048,1.048,0,0,0-.9-.508H7.338a1.048,1.048,0,0,0-.9.508L.15,10.992a.757.757,0,0,0-.039.089c-.014.028-.026.057-.038.087A1.061,1.061,0,0,0,0,11.532v50.32A1.048,1.048,0,0,0,1.048,62.9h60.8A1.048,1.048,0,0,0,62.9,61.852V11.532A1.061,1.061,0,0,0,62.827,11.168ZM55.562,3.086,60,10.483H55.562ZM9.435,2.1h44.03v8.387H9.435Zm-2.1.99v7.4H2.9ZM60.8,60.8H2.1V12.58H60.8Z" fill="#222" stroke="#707070" stroke-width="0.167"/>
          <path id="패스_2590" data-name="패스 2590" d="M31.145,27.623h12.58a3.145,3.145,0,0,0,0-6.29H31.145a3.145,3.145,0,0,0,0,6.29Zm0-4.193h12.58a1.048,1.048,0,1,1,0,2.1H31.145a1.048,1.048,0,0,1,0-2.1Z" transform="translate(-5.985 -4.56)" fill="#222" stroke="#707070" stroke-width="0.167"/>
        </g>
      </g>
      <line id="선_675" data-name="선 675" y2="8" transform="translate(41.5 0.5)" fill="none" stroke="#222" stroke-width="2"/>
      <line id="선_676" data-name="선 676" y1="8" transform="translate(33.5 9.963) rotate(150)" fill="none" stroke="#222" stroke-width="2"/>
      <line id="선_677" data-name="선 677" y2="8" transform="translate(53.5 3.035) rotate(30)" fill="none" stroke="#222" stroke-width="2"/>
    </g>
  </g>
</svg>
