<svg xmlns="http://www.w3.org/2000/svg" width="66" height="66" viewBox="0 0 66 66">
  <g id="그룹_3445" data-name="그룹 3445" transform="translate(-1295 -121.817)">
    <g id="타원_1" data-name="타원 1" transform="translate(1295 121.817)" fill="#034b9d" stroke="#fff" stroke-width="1">
      <circle cx="33" cy="33" r="33" stroke="none"/>
      <circle cx="33" cy="33" r="32.5" fill="none"/>
    </g>
    <g id="그룹_3444" data-name="그룹 3444" transform="translate(1306.27 134.928)">
      <g id="그룹_3442" data-name="그룹 3442" transform="translate(0 0)">
        <path id="패스_69" data-name="패스 69" d="M109.507,151.9A2.131,2.131,0,0,1,108,148.262l19.492-19.492a2.131,2.131,0,0,1,3.015,0l19.477,19.478a2.132,2.132,0,1,1-3.015,3.015L129,133.3l-17.984,17.981A2.125,2.125,0,0,1,109.507,151.9Z" transform="translate(-107.376 -128.146)" fill="#fff"/>
        <path id="패스_70" data-name="패스 70" d="M210.856,350.67H196.2q-.107,0-.211-.01H181.551a2.131,2.131,0,0,1-2.131-2.131v-7.973a2.131,2.131,0,0,1,.624-1.507l14.624-14.624a2.132,2.132,0,0,1,3.015,0c.041.042.08.084.118.128l14.558,14.506a2.134,2.134,0,0,1,.626,1.509v7.969A2.131,2.131,0,0,1,210.856,350.67Zm-14.446-4.263h12.315v-4.958l-12.55-12.5L183.68,341.44V346.4H196.2A1.962,1.962,0,0,1,196.41,346.407Z" transform="translate(-174.593 -310.691)" fill="#fff"/>
      </g>
    </g>
  </g>
</svg>
