<svg xmlns="http://www.w3.org/2000/svg" width="104" height="104" viewBox="0 0 104 104">
  <g id="그룹_3445" data-name="그룹 3445" transform="translate(-1295 -121.441)">
    <g id="타원_1" data-name="타원 1" transform="translate(1295 121.441)" fill="none" stroke="#fff" stroke-width="1">
      <circle cx="52" cy="52" r="52" stroke="none"/>
      <circle cx="52" cy="52" r="51.5" fill="none"/>
    </g>
    <g id="그룹_3444" data-name="그룹 3444" transform="translate(1312.713 142.312)">
      <g id="그룹_3442" data-name="그룹 3442" transform="translate(0 0)">
        <path id="패스_69" data-name="패스 69" d="M110.725,165.483a3.35,3.35,0,0,1-2.368-5.718l30.637-30.637a3.35,3.35,0,0,1,4.739,0l30.613,30.616a3.351,3.351,0,1,1-4.739,4.739L141.362,136.24,113.095,164.5A3.341,3.341,0,0,1,110.725,165.483Z" transform="translate(-107.376 -128.146)" fill="#fff"/>
        <path id="패스_70" data-name="패스 70" d="M228.83,366.034H205.793q-.167,0-.332-.016H182.77a3.35,3.35,0,0,1-3.35-3.35V350.136a3.349,3.349,0,0,1,.981-2.368l22.985-22.986a3.351,3.351,0,0,1,4.739,0c.064.065.126.132.185.2l22.882,22.8a3.354,3.354,0,0,1,.985,2.373V362.68A3.35,3.35,0,0,1,228.83,366.034Zm-22.706-6.7H225.48v-7.793l-19.726-19.649-19.639,19.634v7.793h19.677A3.068,3.068,0,0,1,206.124,359.334Z" transform="translate(-171.833 -303.196)" fill="#fff"/>
      </g>
    </g>
  </g>
</svg>
