<svg id="consulting-message-svgrepo-com" xmlns="http://www.w3.org/2000/svg" width="31.49" height="26.929" viewBox="0 0 31.49 26.929">
  <g id="그룹_5050" data-name="그룹 5050">
    <path id="패스_2568" data-name="패스 2568" d="M25.312,62.412a.637.637,0,0,1-.412-.151L18.517,56.85H4.377A4.395,4.395,0,0,1,0,52.448V39.885a4.395,4.395,0,0,1,4.377-4.4H27.112a4.395,4.395,0,0,1,4.377,4.4V52.448a4.395,4.395,0,0,1-4.377,4.4H25.951v4.919a.643.643,0,0,1-.37.583A.635.635,0,0,1,25.312,62.412ZM4.377,36.768a3.111,3.111,0,0,0-3.1,3.116V52.448a3.111,3.111,0,0,0,3.1,3.116H18.751a.637.637,0,0,1,.412.151l5.51,4.671v-4.18a.641.641,0,0,1,.639-.643h1.8a3.111,3.111,0,0,0,3.1-3.116V39.885a3.111,3.111,0,0,0-3.1-3.116Z" transform="translate(0 -35.483)" fill="#fff"/>
  </g>
  <g id="그룹_5054" data-name="그룹 5054" transform="translate(4.813 5.911)">
    <g id="그룹_5051" data-name="그룹 5051" transform="translate(0 0)">
      <path id="패스_2569" data-name="패스 2569" d="M96.113,128.754H75.527a.643.643,0,0,1,0-1.285H96.113a.643.643,0,0,1,0,1.285Z" transform="translate(-74.888 -127.469)" fill="#fff"/>
    </g>
    <g id="그룹_5052" data-name="그룹 5052" transform="translate(0 4.115)">
      <path id="패스_2570" data-name="패스 2570" d="M96.113,192.788H75.527a.643.643,0,0,1,0-1.285H96.113a.643.643,0,0,1,0,1.285Z" transform="translate(-74.888 -191.503)" fill="#fff"/>
    </g>
    <g id="그룹_5053" data-name="그룹 5053" transform="translate(0 8.23)">
      <path id="패스_2571" data-name="패스 2571" d="M96.113,256.823H75.527a.643.643,0,0,1,0-1.285H96.113a.643.643,0,0,1,0,1.285Z" transform="translate(-74.888 -255.538)" fill="#fff"/>
    </g>
  </g>
</svg>
