<svg xmlns="http://www.w3.org/2000/svg" width="27.5" height="27.54" viewBox="0 0 27.5 27.54">
  <g id="그룹_5112" data-name="그룹 5112" transform="translate(-128 -1370.865)">
    <path id="패스_2510" data-name="패스 2510" d="M22.09,42.873a2.709,2.709,0,0,0-1.965-.9,2.8,2.8,0,0,0-1.988.9L16.3,44.7c-.151-.081-.3-.157-.448-.233-.209-.1-.407-.2-.575-.308A19.963,19.963,0,0,1,10.494,39.8a11.777,11.777,0,0,1-1.569-2.476c.477-.436.918-.889,1.349-1.325.163-.163.326-.331.488-.494a2.667,2.667,0,0,0,0-4.022L9.174,29.894c-.18-.18-.366-.366-.541-.552-.349-.36-.715-.732-1.093-1.081a2.751,2.751,0,0,0-1.947-.854,2.847,2.847,0,0,0-1.976.854l-.012.012L1.63,30.266a4.252,4.252,0,0,0-1.261,2.7,10.189,10.189,0,0,0,.744,4.313A25.027,25.027,0,0,0,5.559,44.7a27.353,27.353,0,0,0,9.108,7.132,14.191,14.191,0,0,0,5.115,1.511c.122.006.25.012.366.012A4.38,4.38,0,0,0,23.5,51.912c.006-.012.017-.017.023-.029a13.216,13.216,0,0,1,1.017-1.052c.25-.238.506-.488.756-.75a2.9,2.9,0,0,0,.878-2.011,2.793,2.793,0,0,0-.9-1.994Zm2.081,6.121c-.006,0-.006.006,0,0-.227.244-.459.465-.709.709a15.284,15.284,0,0,0-1.122,1.162,2.8,2.8,0,0,1-2.186.924c-.087,0-.18,0-.267-.006a12.607,12.607,0,0,1-4.534-1.36A25.82,25.82,0,0,1,6.774,43.7a23.6,23.6,0,0,1-4.185-6.969A8.3,8.3,0,0,1,1.938,33.1a2.668,2.668,0,0,1,.8-1.726l1.982-1.982a1.321,1.321,0,0,1,.884-.413,1.243,1.243,0,0,1,.849.407l.017.017c.355.331.692.674,1.046,1.04.18.186.366.372.552.564l1.587,1.587a1.109,1.109,0,0,1,0,1.8c-.169.169-.331.337-.5.5-.488.5-.953.965-1.459,1.418-.012.012-.023.017-.029.029a1.186,1.186,0,0,0-.3,1.319l.017.052a12.74,12.74,0,0,0,1.877,3.063l.006.006a21.334,21.334,0,0,0,5.162,4.7,7.933,7.933,0,0,0,.715.389c.209.1.407.2.575.308.023.012.047.029.07.041a1.26,1.26,0,0,0,.575.145,1.243,1.243,0,0,0,.884-.4l1.988-1.988a1.315,1.315,0,0,1,.878-.436,1.184,1.184,0,0,1,.837.424l.012.012,3.2,3.2A1.149,1.149,0,0,1,24.171,48.994Z" transform="translate(127.656 1345.052)" fill="#fff"/>
    <path id="패스_2511" data-name="패스 2511" d="M245.59,87.482a7.481,7.481,0,0,1,6.091,6.092.78.78,0,0,0,.773.651,1.04,1.04,0,0,0,.134-.012.786.786,0,0,0,.645-.907,9.045,9.045,0,0,0-7.37-7.37.789.789,0,0,0-.907.639A.776.776,0,0,0,245.59,87.482Z" transform="translate(-102.726 1289.935)" fill="#fff"/>
    <path id="패스_2512" data-name="패스 2512" d="M261.823,12.149A14.894,14.894,0,0,0,249.687.012a.784.784,0,1,0-.256,1.546A13.3,13.3,0,0,1,260.277,12.4a.78.78,0,0,0,.773.651,1.039,1.039,0,0,0,.134-.012A.77.77,0,0,0,261.823,12.149Z" transform="translate(-106.335 1370.865)" fill="#fff"/>
  </g>
</svg>
