<svg xmlns="http://www.w3.org/2000/svg" width="32.854" height="19.165" viewBox="0 0 32.854 19.165">
  <path id="iconmonstr-bed-2" d="M32.854,24.165V14.582H31.485V13.213a4.106,4.106,0,0,0-4.107-4.107H9.582v5.476H1.369V5H0V24.165H1.369V21.427H31.485v2.738ZM1.369,20.058H31.485V15.951H1.369Zm9.582-5.476H30.116V13.213a2.737,2.737,0,0,0-2.738-2.738H10.951ZM5.476,7.738a2.738,2.738,0,1,1-2.738,2.738A2.739,2.739,0,0,1,5.476,7.738Zm0,1.369a1.369,1.369,0,1,1-1.369,1.369A1.369,1.369,0,0,1,5.476,9.107Z" transform="translate(0 -5)" fill-rule="evenodd"/>
</svg>
