<svg xmlns="http://www.w3.org/2000/svg" width="31.06" height="23.042" viewBox="0 0 31.06 23.042">
  <g id="d77373acdc4e1f9e0047472e6686b4c2" transform="translate(-9.998 -136.494)">
    <g id="그룹_5028" data-name="그룹 5028" transform="translate(9.998 136.494)">
      <path id="패스_2520" data-name="패스 2520" d="M10.617-374.4a1.894,1.894,0,0,0-.407.351l-.188.238L10-363.06c-.013,10.15-.006,10.77.094,10.97a1.608,1.608,0,0,0,.351.407l.244.194,14.761.019c14.3.013,14.773.013,14.986-.1a1.9,1.9,0,0,0,.407-.351l.188-.238.019-10.751c.013-10.15.006-10.77-.094-10.97a1.608,1.608,0,0,0-.351-.407l-.244-.194L25.6-374.5C11.306-374.513,10.83-374.513,10.617-374.4Zm29.447,11.415v10.525H10.993V-373.51H40.063Z" transform="translate(-9.998 374.506)"/>
      <path id="패스_2521" data-name="패스 2521" d="M69.275-295.185a7.073,7.073,0,0,0-2.017.658,1.849,1.849,0,0,1-.551.226.7.7,0,0,0-.144-.219l-.138-.176-.395.288-.389.288.15.219.15.226-.4.4a6.454,6.454,0,0,0-1.854,5.181c.044.351.094.7.113.77.025.106-.006.138-.219.2l-.25.075.163.476c.125.382.175.464.263.432.37-.144.4-.125.627.326a6.617,6.617,0,0,0,1.961,2.306,6.815,6.815,0,0,0,2.895,1.2l.414.044v.545h1v-.545l.414-.044a6.657,6.657,0,0,0,3.665-1.867,7.175,7.175,0,0,0,1.215-1.673c.194-.414.232-.432.6-.288.088.031.138-.05.263-.432l.163-.476-.251-.075c-.213-.063-.244-.094-.219-.2.019-.075.069-.42.113-.777a6.5,6.5,0,0,0-1.886-5.206l-.37-.37.15-.226.15-.219-.389-.288-.395-.288-.138.176a.641.641,0,0,0-.144.226,1.737,1.737,0,0,1-.514-.213A6.357,6.357,0,0,0,69.275-295.185Zm2.318,1.109a5.553,5.553,0,0,1,1.378.57,3.118,3.118,0,0,1-.3.457l-.294.414-.219-.119a5.8,5.8,0,0,0-.72-.282,3.077,3.077,0,0,0-1.284-.169,3.071,3.071,0,0,0-1.284.169,5.759,5.759,0,0,0-.72.282l-.219.119-.294-.414a3.118,3.118,0,0,1-.3-.457,4.507,4.507,0,0,1,.908-.432,5.862,5.862,0,0,1,.72-.194A6.762,6.762,0,0,1,71.593-294.076Zm-4.743,1.635.288.4-.326.357a4.526,4.526,0,0,0-.965,1.66,3.3,3.3,0,0,0-.169,1.366v.858l-.426.138a1.166,1.166,0,0,1-.464.094,2.988,2.988,0,0,1-.144-1.172,5.765,5.765,0,0,1,.883-3.07c.307-.464.933-1.146.99-1.084C66.544-292.867,66.694-292.66,66.851-292.441Zm7.387-.056a5.527,5.527,0,0,1,1.422,3.728,3.54,3.54,0,0,1-.138,1.2,2.758,2.758,0,0,1-.858-.226c-.088-.044-.088-.119-.038-.5a4.381,4.381,0,0,0-1.134-3.383l-.326-.357.294-.414a1.467,1.467,0,0,1,.37-.42A1.707,1.707,0,0,1,74.238-292.5Zm-3.371.319a3.067,3.067,0,0,1,.639.188l.288.119-.132.207-.132.213.407.288.4.288.113-.182c.056-.106.138-.188.175-.188a2.653,2.653,0,0,1,.714,1.009,3.743,3.743,0,0,1,.319,1.6c0,.489-.019.52-.338.4-.15-.063-.157-.05-.282.37-.169.545-.169.545.056.6s.238.119,0,.5a3.566,3.566,0,0,1-2.061,1.441l-.382.088v-.489h-1v.489l-.382-.088a3.567,3.567,0,0,1-2.061-1.441c-.238-.376-.238-.445,0-.5s.226-.05.056-.6c-.125-.42-.132-.432-.282-.37-.319.119-.338.094-.338-.432a3.624,3.624,0,0,1,.739-2.287c.125-.163.257-.294.294-.294s.113.069.157.157.113.157.144.157a2.673,2.673,0,0,0,.426-.257l.37-.263-.132-.207-.125-.207.2-.1A3.969,3.969,0,0,1,70.867-292.178ZM66.3-286.47a4.734,4.734,0,0,0,2.995,2.136l.357.069v1.04l-.263-.038a5.609,5.609,0,0,1-3.515-1.949,5.459,5.459,0,0,1-.8-1.316,2.958,2.958,0,0,1,.915-.326C66.03-286.858,66.168-286.683,66.3-286.47Zm8.464-.251a1.174,1.174,0,0,1,.464.188,4.211,4.211,0,0,1-.52.959,5.592,5.592,0,0,1-2.475,1.961,5.744,5.744,0,0,1-1.372.351l-.207.031v-1.046l.294-.044a4.783,4.783,0,0,0,3.057-2.149,3.013,3.013,0,0,1,.263-.389C74.288-286.858,74.507-286.8,74.764-286.721Z" transform="translate(-61.64 297.753)"/>
      <path id="패스_2522" data-name="패스 2522" d="M235.242-143.434a.608.608,0,0,0-.132.307.608.608,0,0,0,.132.307.482.482,0,0,0,.846-.37A.489.489,0,0,0,235.242-143.434Z" transform="translate(-227.975 150.92)"/>
      <path id="패스_2523" data-name="패스 2523" d="M290.938-143.4a.453.453,0,0,0,.345.783.39.39,0,0,0,.37-.163A.473.473,0,0,0,290.938-143.4Z" transform="translate(-281.893 150.882)"/>
      <path id="패스_2524" data-name="패스 2524" d="M218.611-89.945a.524.524,0,0,0,.025.7.49.49,0,0,0,.689-.044.462.462,0,0,0-.364-.777A.45.45,0,0,0,218.611-89.945Z" transform="translate(-211.884 99.085)"/>
      <path id="패스_2525" data-name="패스 2525" d="M308.552-90.058a.451.451,0,0,0-.006.633.489.489,0,0,0,.689.044.524.524,0,0,0,.025-.7A.522.522,0,0,0,308.552-90.058Z" transform="translate(-298.962 99.217)"/>
      <path id="패스_2526" data-name="패스 2526" d="M263.74-57.954a.478.478,0,0,0,.019.846.472.472,0,0,0,.652-.614A.463.463,0,0,0,263.74-57.954Z" transform="translate(-255.459 68.047)"/>
      <path id="패스_2527" data-name="패스 2527" d="M512.175-295.252a5.807,5.807,0,0,0-1.8.589l-.62.288-.163-.2-.169-.207-.395.288-.389.288.15.219.151.226-.37.37a6.5,6.5,0,0,0-1.886,5.206c.044.357.088.7.113.777.025.106-.006.138-.213.2l-.251.075.144.457c.094.276.182.445.232.439a1.707,1.707,0,0,0,.269-.05c.182-.038.194-.025.4.389a6.614,6.614,0,0,0,1.961,2.306,6.814,6.814,0,0,0,2.895,1.2l.414.044v.545h1v-.545l.414-.044a6.657,6.657,0,0,0,3.665-1.867,7.178,7.178,0,0,0,1.215-1.673c.194-.414.232-.432.6-.288.088.031.138-.05.263-.432l.163-.476-.251-.075c-.213-.063-.244-.094-.219-.2.019-.075.069-.42.113-.777a6.5,6.5,0,0,0-1.886-5.206l-.37-.37.15-.226.151-.219-.389-.288-.395-.288-.138.176a.64.64,0,0,0-.144.226,2.178,2.178,0,0,1-.545-.232A6.224,6.224,0,0,0,512.175-295.252Zm2.412,1.09a5.553,5.553,0,0,1,1.378.57,3.121,3.121,0,0,1-.3.457l-.294.414-.232-.119a7.267,7.267,0,0,0-.72-.288,2.976,2.976,0,0,0-1.272-.169,3.169,3.169,0,0,0-1.284.175,5.762,5.762,0,0,0-.72.282l-.219.119-.294-.414a3.118,3.118,0,0,1-.3-.457,4.506,4.506,0,0,1,.908-.432,5.861,5.861,0,0,1,.72-.194A6.763,6.763,0,0,1,514.587-294.162Zm-4.749,1.623.294.414-.326.357a4.526,4.526,0,0,0-.965,1.66,3.3,3.3,0,0,0-.169,1.366v.865l-.426.125a1.449,1.449,0,0,1-.47.1,3.2,3.2,0,0,1-.144-1.147,5.615,5.615,0,0,1,.871-3.045,4.091,4.091,0,0,1,.965-1.115A1.466,1.466,0,0,1,509.839-292.539Zm7.267-.188a5.652,5.652,0,0,1,1.529,4.473c-.063.683-.069.683-.614.5l-.457-.157.031-.219c.019-.119.025-.5.025-.846a3.026,3.026,0,0,0-.194-1.178,4.317,4.317,0,0,0-.94-1.61l-.326-.357.294-.414a1.786,1.786,0,0,1,.357-.42A.986.986,0,0,1,517.106-292.727Zm-3.095.489a2.972,2.972,0,0,1,.583.194l.188.094-.125.207-.132.207.37.263a2.675,2.675,0,0,0,.426.257c.031,0,.1-.069.144-.157s.113-.157.157-.157.169.132.294.294a3.536,3.536,0,0,1,.739,2.255c0,.557-.019.583-.338.464-.15-.063-.157-.05-.282.37-.169.545-.169.545.056.6s.238.119,0,.5a3.566,3.566,0,0,1-2.061,1.441l-.382.088v-.489h-1v.489l-.382-.088a3.566,3.566,0,0,1-2.061-1.441c-.238-.376-.238-.445,0-.5s.226-.063.05-.6c-.125-.4-.144-.42-.282-.363-.313.119-.332.094-.332-.464a3.536,3.536,0,0,1,.739-2.255c.125-.163.257-.294.294-.294s.113.069.157.157.113.157.144.157a2.673,2.673,0,0,0,.426-.257l.37-.263-.132-.207-.125-.207.188-.1A4.037,4.037,0,0,1,514.011-292.239Zm-4.668,5.758a5.7,5.7,0,0,0,1.566,1.535,5.359,5.359,0,0,0,1.566.57h.169v1.059l-.232-.031a5.578,5.578,0,0,1-3.628-2.055,5.031,5.031,0,0,1-.714-1.209,3.02,3.02,0,0,1,.915-.326A1.561,1.561,0,0,1,509.343-286.481Zm8.414-.326a1.171,1.171,0,0,1,.464.188,4.2,4.2,0,0,1-.52.959,5.592,5.592,0,0,1-2.475,1.961,5.744,5.744,0,0,1-1.372.351l-.207.031v-1.046l.294-.044A4.783,4.783,0,0,0,517-286.556a3.01,3.01,0,0,1,.263-.389C517.281-286.944,517.5-286.882,517.758-286.807Z" transform="translate(-490.599 297.839)"/>
      <path id="패스_2528" data-name="패스 2528" d="M678.042-143.434a.608.608,0,0,0-.132.307.608.608,0,0,0,.132.307.482.482,0,0,0,.846-.37A.488.488,0,0,0,678.042-143.434Z" transform="translate(-656.741 150.92)"/>
      <path id="패스_2529" data-name="패스 2529" d="M733.738-143.4a.453.453,0,0,0,.344.783.39.39,0,0,0,.37-.163A.473.473,0,0,0,733.738-143.4Z" transform="translate(-710.659 150.882)"/>
      <path id="패스_2530" data-name="패스 2530" d="M661.411-89.945a.524.524,0,0,0,.025.7.49.49,0,0,0,.689-.044.462.462,0,0,0-.364-.777A.451.451,0,0,0,661.411-89.945Z" transform="translate(-640.65 99.085)"/>
      <path id="패스_2531" data-name="패스 2531" d="M751.359-90.058a.452.452,0,0,0-.006.633.489.489,0,0,0,.689.044.524.524,0,0,0,.025-.7A.522.522,0,0,0,751.359-90.058Z" transform="translate(-727.735 99.217)"/>
      <path id="패스_2532" data-name="패스 2532" d="M706.568-58.223a.483.483,0,0,0,.063.858.479.479,0,0,0,.395-.871A.406.406,0,0,0,706.568-58.223Z" transform="translate(-684.266 68.322)"/>
      <path id="패스_2533" data-name="패스 2533" d="M566.059,139.644l-.244.395-.476-.025a1.361,1.361,0,0,0-.821.132,2.389,2.389,0,0,0-1.1,1.065,1.864,1.864,0,0,0,.464,2.224,1.652,1.652,0,0,0,1.353.545,1.4,1.4,0,0,0,.8-.144,2.149,2.149,0,0,0,1.184-1.666,1.738,1.738,0,0,0-.326-1.228,2.947,2.947,0,0,1-.219-.363,2.53,2.53,0,0,1,.232-.414l.226-.37-.163-.132a3.376,3.376,0,0,0-.414-.269l-.244-.144Zm-.89,1.391c0,.019-.188.332-.42.7-.338.539-.426.645-.464.545a1.152,1.152,0,0,1,.182-.965C564.593,141.167,565.169,140.935,565.169,141.035Zm1.034.958a.925.925,0,0,1-.4.846c-.182.106-.633.207-.633.138,0-.025.2-.37.445-.764C566.116,141.417,566.2,141.386,566.2,141.994Z" transform="translate(-545.692 -122.967)"/>
      <path id="패스_2534" data-name="패스 2534" d="M311.691,147.419c0,.257-.013.276-.282.407a2.388,2.388,0,0,0-1.034,1.034,1.864,1.864,0,0,0,.464,2.224,1.652,1.652,0,0,0,1.353.545,1.4,1.4,0,0,0,.8-.144,2.572,2.572,0,0,0,.99-.965,1.35,1.35,0,0,0,.182-.865,1.415,1.415,0,0,0-.144-.8,2.454,2.454,0,0,0-.984-.99c-.332-.175-.345-.188-.345-.451v-.263h-1v.269Zm0,2.237c0,.846-.006.877-.119.8a1.113,1.113,0,0,1-.1-1.529.718.718,0,0,1,.188-.15A5.95,5.95,0,0,1,311.691,149.656Zm1.353-.539a1.141,1.141,0,0,1-.232,1.341c-.113.075-.119.044-.119-.8s.006-.877.119-.8A.907.907,0,0,1,313.044,149.117Z" transform="translate(-300.672 -130.617)"/>
    </g>
  </g>
</svg>
