<svg xmlns="http://www.w3.org/2000/svg" width="16.395" height="16.419" viewBox="0 0 16.395 16.419">
  <g id="phone-call-svgrepo-com_1_" data-name="phone-call-svgrepo-com (1)" transform="translate(-0.344 0)">
    <g id="그룹_5013" data-name="그룹 5013" transform="translate(0.344 0)">
      <path id="패스_2510" data-name="패스 2510" d="M13.309,36.627a1.615,1.615,0,0,0-1.171-.537,1.67,1.67,0,0,0-1.185.534l-1.1,1.092c-.09-.049-.18-.094-.267-.139-.125-.062-.243-.121-.343-.184a11.9,11.9,0,0,1-2.852-2.6,7.021,7.021,0,0,1-.936-1.476c.284-.26.548-.53.8-.79.1-.1.194-.2.291-.295a1.59,1.59,0,0,0,0-2.4l-.946-.946c-.107-.107-.218-.218-.322-.329-.208-.215-.426-.437-.651-.645a1.64,1.64,0,0,0-1.161-.509,1.7,1.7,0,0,0-1.178.509l-.007.007L1.111,29.111a2.535,2.535,0,0,0-.752,1.611A6.075,6.075,0,0,0,.8,33.294a14.921,14.921,0,0,0,2.651,4.422,16.307,16.307,0,0,0,5.43,4.252,8.461,8.461,0,0,0,3.049.9c.073,0,.149.007.218.007a2.611,2.611,0,0,0,2-.859c0-.007.01-.01.014-.017a7.878,7.878,0,0,1,.606-.627c.149-.142.3-.291.45-.447a1.729,1.729,0,0,0,.523-1.2,1.665,1.665,0,0,0-.534-1.189Zm1.241,3.649s0,0,0,0c-.135.146-.274.277-.423.423a9.112,9.112,0,0,0-.669.693,1.671,1.671,0,0,1-1.3.551c-.052,0-.107,0-.159,0a7.516,7.516,0,0,1-2.7-.811,15.393,15.393,0,0,1-5.115-4.006,14.068,14.068,0,0,1-2.5-4.155A4.948,4.948,0,0,1,1.294,30.8a1.591,1.591,0,0,1,.478-1.029l1.182-1.182a.788.788,0,0,1,.527-.246.741.741,0,0,1,.506.243l.01.01c.211.2.412.4.624.62.107.111.218.222.329.336L5.9,30.5a.661.661,0,0,1,0,1.074c-.1.1-.2.2-.3.3-.291.3-.568.575-.87.846-.007.007-.014.01-.017.017a.707.707,0,0,0-.18.787l.01.031a7.6,7.6,0,0,0,1.119,1.826l0,0a12.719,12.719,0,0,0,3.077,2.8,4.731,4.731,0,0,0,.426.232c.125.062.243.121.343.184.014.007.028.017.042.024a.751.751,0,0,0,.343.087.741.741,0,0,0,.527-.239l1.185-1.185a.784.784,0,0,1,.523-.26.706.706,0,0,1,.5.253l.007.007,1.909,1.909A.685.685,0,0,1,14.549,40.276Z" transform="translate(-0.344 -26.456)" fill="#505050"/>
      <path id="패스_2511" data-name="패스 2511" d="M245.329,86.853a4.46,4.46,0,0,1,3.632,3.632.465.465,0,0,0,.461.388.62.62,0,0,0,.08-.007.468.468,0,0,0,.385-.541,5.393,5.393,0,0,0-4.394-4.394.47.47,0,0,0-.541.381A.463.463,0,0,0,245.329,86.853Z" transform="translate(-236.468 -82.948)" fill="#505050"/>
      <path id="패스_2512" data-name="패스 2512" d="M256.554,7.243A8.88,8.88,0,0,0,249.319.007a.467.467,0,1,0-.152.922A7.931,7.931,0,0,1,255.633,7.4a.465.465,0,0,0,.461.388.619.619,0,0,0,.08-.007A.459.459,0,0,0,256.554,7.243Z" transform="translate(-240.166 0)" fill="#505050"/>
    </g>
  </g>
</svg>
