<svg xmlns="http://www.w3.org/2000/svg" xmlns:xlink="http://www.w3.org/1999/xlink" width="18" height="18" viewBox="0 0 18 18">
  <defs>
    <clipPath id="clip-path">
      <rect id="사각형_1927" data-name="사각형 1927" width="18" height="18" transform="translate(170 484.29)" fill="#333"/>
    </clipPath>
  </defs>
  <g id="마스크_그룹_13" data-name="마스크 그룹 13" transform="translate(-170 -484.29)" clip-path="url(#clip-path)">
    <g id="present" transform="translate(170.019 484)">
      <g id="그룹_3947" data-name="그룹 3947" transform="translate(0)">
        <path id="패스_202" data-name="패스 202" d="M14.5,4.066a4.874,4.874,0,0,0,1.056-.484,1.986,1.986,0,0,0-.889-3.56A1.973,1.973,0,0,0,13.191.39a16.825,16.825,0,0,0-2.2,2.964,2.211,2.211,0,0,0-3.656,0A16.827,16.827,0,0,0,5.137.39,1.986,1.986,0,0,0,1.991,2.279a1.973,1.973,0,0,0,.782,1.3,4.873,4.873,0,0,0,1.056.484H.038v4.6H1.108V18.29h16.11V8.665H18.29v-4.6ZM13.827,1.25a.909.909,0,0,1,.543-.18.933.933,0,0,1,.137.01.916.916,0,0,1,.41,1.643,16.223,16.223,0,0,1-2.894,1A15.836,15.836,0,0,1,13.827,1.25ZM9.164,3.457a1.145,1.145,0,0,1,1.011.609H8.153A1.144,1.144,0,0,1,9.164,3.457ZM3.41,2.722a.916.916,0,0,1,.41-1.643.928.928,0,0,1,.137-.01.91.91,0,0,1,.543.18A16.22,16.22,0,0,1,6.3,3.726,15.839,15.839,0,0,1,3.41,2.722Zm-2.3,2.413H5.385V7.6H1.108ZM6.455,17.221H2.177V8.665H6.455v8.556Zm0-12.085h5.388V7.6H6.455Zm4.319,12.085H7.524V8.665h3.249Zm5.375,0H11.843V8.665h4.305v8.556ZM17.22,7.6H12.912V5.136H17.22V7.6Z" transform="translate(-0.038 0)" fill="#333"/>
      </g>
    </g>
  </g>
</svg>
