<svg xmlns="http://www.w3.org/2000/svg" width="18.34" height="16.7" viewBox="0 0 18.34 16.7">
  <path id="패스_2596" data-name="패스 2596" d="M18.061,4.424a5.141,5.141,0,0,0-8.9-1.468A5.138,5.138,0,0,0,5.115.987h0A5.174,5.174,0,0,0,.907,3.174,4.914,4.914,0,0,0,.036,5.452,6.213,6.213,0,0,0,.231,7.763a12.187,12.187,0,0,0,2.076,4.01,23.861,23.861,0,0,0,6.516,5.7l.339.213.339-.213a21.721,21.721,0,0,0,7.44-7.07A8.861,8.861,0,0,0,18.333,6.38,5.1,5.1,0,0,0,18.061,4.424Zm-8.9,11.753a22.2,22.2,0,0,1-5.839-5.171A10.922,10.922,0,0,1,1.462,7.438,4.951,4.951,0,0,1,1.3,5.6a3.654,3.654,0,0,1,.648-1.694,3.868,3.868,0,0,1,6.641.521l.572,1.166.571-1.167a3.874,3.874,0,0,1,7.127.418,3.835,3.835,0,0,1,.2,1.471,7.651,7.651,0,0,1-1.216,3.437A20.117,20.117,0,0,1,9.162,16.177Z" transform="translate(0 -0.984)" fill="#555"/>
</svg>
