<svg xmlns="http://www.w3.org/2000/svg" xmlns:xlink="http://www.w3.org/1999/xlink" width="18" height="18" viewBox="0 0 18 18">
  <defs>
    <clipPath id="clip-path">
      <rect id="사각형_1837" data-name="사각형 1837" width="18" height="18" transform="translate(-1930 -1744.078)" fill="#505050"/>
    </clipPath>
  </defs>
  <g id="마스크_그룹_3" data-name="마스크 그룹 3" transform="translate(1930 1744.078)" clip-path="url(#clip-path)">
    <g id="future" transform="translate(-1930 -1744)">
      <g id="그룹_3837" data-name="그룹 3837" transform="translate(0 0)">
        <g id="그룹_3836" data-name="그룹 3836">
          <path id="패스_155" data-name="패스 155" d="M17.4,8.436a.525.525,0,0,0-.525.525A7.907,7.907,0,1,1,12.74,2.01l-.656.656a.525.525,0,0,0,.371.9h2.512a.525.525,0,0,0,.525-.525V.525a.525.525,0,0,0-.9-.371L13.51,1.24A8.961,8.961,0,0,0,2.625,15.3a8.961,8.961,0,0,0,15.3-6.336A.525.525,0,0,0,17.4,8.436Z" transform="translate(0 0)" fill="#505050"/>
        </g>
      </g>
      <g id="그룹_3839" data-name="그룹 3839" transform="translate(8.436 5.061)">
        <g id="그룹_3838" data-name="그룹 3838">
          <path id="패스_156" data-name="패스 156" d="M14.255,9.588H11.406V6.738a.525.525,0,1,0-1.05,0v3.374a.525.525,0,0,0,.525.525h3.374a.525.525,0,0,0,0-1.05Z" transform="translate(-10.356 -6.213)" fill="#505050"/>
        </g>
      </g>
    </g>
  </g>
</svg>
